HIERARCHY
ROOT Hips
{
	OFFSET -14.64140 90.27770 -84.91600
	CHANNELS 6 Xposition Yposition Zposition Zrotation Xrotation Yrotation
	JOINT Spine
	{
		OFFSET 0.00000 13.20850 -1.60436
		CHANNELS 3 Zrotation Xrotation Yrotation
		JOINT Spine1
		{
			OFFSET 0.00000 8.61716 0.00000
			CHANNELS 3 Zrotation Xrotation Yrotation
			JOINT Spine2
			{
				OFFSET 0.00000 8.61717 0.00000
				CHANNELS 3 Zrotation Xrotation Yrotation
				JOINT Spine3
				{
					OFFSET 0.00000 8.61717 0.00000
					CHANNELS 3 Zrotation Xrotation Yrotation
					JOINT Neck
					{
						OFFSET 0.00000 11.07920 1.10792
						CHANNELS 3 Zrotation Xrotation Yrotation
						JOINT Neck1
						{
							OFFSET 0.00000 7.08032 0.00000
							CHANNELS 3 Zrotation Xrotation Yrotation
							JOINT Head
							{
								OFFSET 0.00000 7.08031 0.00000
								CHANNELS 3 Zrotation Xrotation Yrotation
								End site
								{
									OFFSET 0.00000 0.00000 0.00000
								}
							}
						}
					}
					JOINT RightShoulder
					{
						OFFSET -0.01000 7.91373 5.19711
						CHANNELS 3 Zrotation Xrotation Yrotation
						JOINT RightArm
						{
							OFFSET -18.41580 0.00000 0.00000
							CHANNELS 3 Zrotation Xrotation Yrotation
							JOINT RightForeArm
							{
								OFFSET -29.11090 0.00000 0.00000
								CHANNELS 3 Zrotation Xrotation Yrotation
								JOINT RightHand
								{
									OFFSET -24.65040 0.00000 0.00000
									CHANNELS 3 Zrotation Xrotation Yrotation
									JOINT RightHandThumb1
									{
										OFFSET -5.35114 -0.85590 3.97906
										CHANNELS 3 Zrotation Xrotation Yrotation
										JOINT RightHandThumb2
										{
											OFFSET -4.52789 0.00000 0.00000
											CHANNELS 3 Zrotation Xrotation Yrotation
											JOINT RightHandThumb3
											{
												OFFSET -2.46976 0.00000 0.00000
												CHANNELS 3 Zrotation Xrotation Yrotation
												End site
												{
													OFFSET 0.00000 0.00000 0.00000
												}
											}
										}
									}
									JOINT RightHandIndex1
									{
										OFFSET -14.26970 0.00000 2.88139
										CHANNELS 3 Zrotation Xrotation Yrotation
										JOINT RightHandIndex2
										{
											OFFSET -5.48836 0.00000 0.00000
											CHANNELS 3 Zrotation Xrotation Yrotation
											JOINT RightHandIndex3
											{
												OFFSET -3.01859 0.00000 0.00000
												CHANNELS 3 Zrotation Xrotation Yrotation
												End site
												{
													OFFSET 0.00000 0.00000 0.00000
												}
											}
										}
									}
									JOINT RightHandMiddle1
									{
										OFFSET -14.26970 0.00000 -0.09147
										CHANNELS 3 Zrotation Xrotation Yrotation
										JOINT RightHandMiddle2
										{
											OFFSET -6.17441 0.00000 0.00000
											CHANNELS 3 Zrotation Xrotation Yrotation
											JOINT RightHandMiddle3
											{
												OFFSET -3.56743 0.00000 0.00000
												CHANNELS 3 Zrotation Xrotation Yrotation
												End site
												{
													OFFSET 0.00000 0.00000 0.00000
												}
											}
										}
									}
									JOINT RightHandRing1
									{
										OFFSET -12.69180 0.00000 -3.06433
										CHANNELS 3 Zrotation Xrotation Yrotation
										JOINT RightHandRing2
										{
											OFFSET -5.62556 0.00000 0.00000
											CHANNELS 3 Zrotation Xrotation Yrotation
											JOINT RightHandRing3
											{
												OFFSET -3.56744 0.00000 0.00000
												CHANNELS 3 Zrotation Xrotation Yrotation
												End site
												{
													OFFSET 0.00000 0.00000 0.00000
												}
											}
										}
									}
									JOINT RightHandPinky1
									{
										OFFSET -11.11390 0.00000 -6.03719
										CHANNELS 3 Zrotation Xrotation Yrotation
										JOINT RightHandPinky2
										{
											OFFSET -4.52789 0.00000 0.00000
											CHANNELS 3 Zrotation Xrotation Yrotation
											JOINT RightHandPinky3
											{
												OFFSET -2.46976 0.00000 0.00000
												CHANNELS 3 Zrotation Xrotation Yrotation
												End site
												{
													OFFSET 0.00000 0.00000 0.00000
												}
											}
										}
									}
								}
							}
						}
					}
					JOINT LeftShoulder
					{
						OFFSET 0.01000 7.91373 5.19711
						CHANNELS 3 Zrotation Xrotation Yrotation
						JOINT LeftArm
						{
							OFFSET 18.41580 0.00000 0.00000
							CHANNELS 3 Zrotation Xrotation Yrotation
							JOINT LeftForeArm
							{
								OFFSET 29.11090 0.00000 0.00000
								CHANNELS 3 Zrotation Xrotation Yrotation
								JOINT LeftHand
								{
									OFFSET 24.65040 0.00000 0.00000
									CHANNELS 3 Zrotation Xrotation Yrotation
									JOINT LeftHandThumb1
									{
										OFFSET 5.35114 -0.85590 3.97906
										CHANNELS 3 Zrotation Xrotation Yrotation
										JOINT LeftHandThumb2
										{
											OFFSET 4.52789 0.00000 0.00000
											CHANNELS 3 Zrotation Xrotation Yrotation
											JOINT LeftHandThumb3
											{
												OFFSET 2.46977 0.00000 0.00000
												CHANNELS 3 Zrotation Xrotation Yrotation
												End site
												{
													OFFSET 0.00000 0.00000 0.00000
												}
											}
										}
									}
									JOINT LeftHandIndex1
									{
										OFFSET 14.26970 0.00000 2.88139
										CHANNELS 3 Zrotation Xrotation Yrotation
										JOINT LeftHandIndex2
										{
											OFFSET 5.48836 0.00000 0.00000
											CHANNELS 3 Zrotation Xrotation Yrotation
											JOINT LeftHandIndex3
											{
												OFFSET 3.01859 0.00000 0.00000
												CHANNELS 3 Zrotation Xrotation Yrotation
												End site
												{
													OFFSET 0.00000 0.00000 0.00000
												}
											}
										}
									}
									JOINT LeftHandMiddle1
									{
										OFFSET 14.26970 0.00000 -0.09147
										CHANNELS 3 Zrotation Xrotation Yrotation
										JOINT LeftHandMiddle2
										{
											OFFSET 6.17440 0.00000 0.00000
											CHANNELS 3 Zrotation Xrotation Yrotation
											JOINT LeftHandMiddle3
											{
												OFFSET 3.56744 0.00000 0.00000
												CHANNELS 3 Zrotation Xrotation Yrotation
												End site
												{
													OFFSET 0.00000 0.00000 0.00000
												}
											}
										}
									}
									JOINT LeftHandRing1
									{
										OFFSET 12.69180 0.00000 -3.06433
										CHANNELS 3 Zrotation Xrotation Yrotation
										JOINT LeftHandRing2
										{
											OFFSET 5.62556 0.00000 0.00000
											CHANNELS 3 Zrotation Xrotation Yrotation
											JOINT LeftHandRing3
											{
												OFFSET 3.56744 0.00000 0.00000
												CHANNELS 3 Zrotation Xrotation Yrotation
												End site
												{
													OFFSET 0.00000 0.00000 0.00000
												}
											}
										}
									}
									JOINT LeftHandPinky1
									{
										OFFSET 11.11390 0.00000 -6.03719
										CHANNELS 3 Zrotation Xrotation Yrotation
										JOINT LeftHandPinky2
										{
											OFFSET 4.52789 0.00000 0.00000
											CHANNELS 3 Zrotation Xrotation Yrotation
											JOINT LeftHandPinky3
											{
												OFFSET 2.46976 0.00000 0.00000
												CHANNELS 3 Zrotation Xrotation Yrotation
												End site
												{
													OFFSET 0.00000 0.00000 0.00000
												}
											}
										}
									}
								}
							}
						}
					}
					JOINT pCube4
					{
						OFFSET 0.00000 10.91090 1.10792
						CHANNELS 3 Zrotation Xrotation Yrotation
						End site
						{
							OFFSET 0.00000 0.00000 0.00000
						}
					}
				}
			}
		}
	}
	JOINT RightUpLeg
	{
		OFFSET -9.98441 0.00000 0.00000
		CHANNELS 3 Zrotation Xrotation Yrotation
		JOINT RightLeg
		{
			OFFSET 0.00000 -42.11790 0.00000
			CHANNELS 3 Zrotation Xrotation Yrotation
			JOINT RightFoot
			{
				OFFSET 0.00000 -45.00020 -0.00001
				CHANNELS 3 Zrotation Xrotation Yrotation
				JOINT RightForeFoot
				{
					OFFSET 0.00000 -3.74820 0.00000
					CHANNELS 3 Zrotation Xrotation Yrotation
					JOINT RightToeBase
					{
						OFFSET 0.00000 0.06325 14.43120
						CHANNELS 3 Zrotation Xrotation Yrotation
						End site
						{
							OFFSET 0.00000 0.00000 0.00000
						}
					}
				}
			}
		}
	}
	JOINT LeftUpLeg
	{
		OFFSET 9.98441 0.00000 0.00000
		CHANNELS 3 Zrotation Xrotation Yrotation
		JOINT LeftLeg
		{
			OFFSET 0.00000 -42.11800 0.00000
			CHANNELS 3 Zrotation Xrotation Yrotation
			JOINT LeftFoot
			{
				OFFSET 0.00000 -45.00070 0.00000
				CHANNELS 3 Zrotation Xrotation Yrotation
				JOINT LeftForeFoot
				{
					OFFSET 0.00000 -3.74824 0.00000
					CHANNELS 3 Zrotation Xrotation Yrotation
					JOINT LeftToeBase
					{
						OFFSET 0.00000 0.06325 14.43110
						CHANNELS 3 Zrotation Xrotation Yrotation
						End site
						{
							OFFSET 0.00000 0.00000 0.00000
						}
					}
				}
			}
		}
	}
}
MOTION
Frames: 4
Frame Time: 0.050000
-0.024309756991217166 0.016392562689754028 -0.01348515993486773 0.02828808379136177 0.02762994334473017 0.03732502427555988 -3.658298632289601 2.1525291392967367 -0.7635240010662265 -1.200768596763183 3.851835318248166 0.3874454086924991 -1.3508334106450046 -1.4945935262149532 -1.3553668903111133 0.21268036727121967 0.6797881295275185 -0.8363262971847014 0.07265229425480246 11.365453498472245 -0.7489229420610397 0.16506127735670698 -1.9872099069288005 -3.435090527485804 0.6838516638631906 -18.5843263163585 -0.3822955502023391 -4.700129193361743 1.6465598981452172 -14.86424028306065 74.4984361152668 24.42353283558458 0.06466047973917617 -2.542097550356148 1.8729849785613244 40.267420525507525 19.64617621887625 -0.07609798617409474 -3.735027182388273 4.4802488877465 -0.07922829748732232 -1.5767902278725958 0.0175777591696888 -0.015017428584823847 -56.211117238182744 -0.012868221524827252 0.038950508510676995 -56.22032498940927 -38.77997493161853 -0.013635666627710864 0.0038287872773633334 0.006304806850324755 -0.02363986653035426 0.02277016075629139 0.019428606560680642 -0.03871534654109078 -0.016311217002121344 -36.645471942035336 0.013607640913289988 -0.03215182033633963 0.029216443316888666 0.00152688807421897 0.02149438620243407 -0.035966524386736254 -0.013382192252978035 0.033536954643729286 -19.798135739790787 0.022935455991329304 0.025580963531624385 -0.002655853538752107 -0.004434803402944509 0.003363412616150592 0.04019062091832005 -0.005289937611703123 0.045287280637129584 24.068562050163273 0.025672913541039403 -0.04545746974673947 28.8859310307354 -0.045247320051914584 0.00705871605632528 28.822073525081592 0.012078322592723073 -0.022760158059665858 5.015300006548247 1.2371586056804664 12.86607126553343 -71.75033798279479 26.75841028990017 -6.246650618202058 1.4666485141238745 -7.71473534758366 -40.72512685685972 -8.286750550166442 1.4548207268990156 2.4843488494933923 -0.4572016583403324 0.06189369903160477 -8.081848368093922 0.043530189015125245 -0.0008229146643386947 44.55013837122679 0.03654618269524815 0.026450497182899196 44.54375691000039 12.440487781215284 -0.03438011652188731 0.04555124470993409 0.0356139677868692 0.00903249906026085 0.006453064021312998 0.022599553909323482 -0.03671991748777624 -0.04364910619475365 11.126227487260975 -0.01797203031773995 0.0029786313183872274 0.04261111486185213 -0.007542797792859716 -0.010091553857609414 -0.010645234370411434 0.010871798060454324 0.006614054267624678 4.78115804021199 -0.010590051130976243 -0.01642231523468647 -0.028682577522102657 -0.02609191861703794 0.04341275066865523 0.021915361035214714 -0.002947136423828434 -0.02044376075604866 -5.641631314596546 0.0018800302264148836 -0.02300463024684973 -6.707469609458068 -0.028130200733516308 -0.046232825385721085 -6.715566477711474 -0.003925932352538637 -0.014532790872486942 -0.014803020672968223 0.038222292670153854 0.003924589094070271 7.9984583117930805 3.4867533199188707 -19.238279493433087 0.01447078968503403 10.375937839837409 0.06300244777560811 -5.661997597595349 -15.6911338230832 3.169823619248677 0.0061727546951143315 0.04741065176216526 -0.020936120236556437 0.030328107597603852 4.699819017626389 -0.01391487235947532 12.44868378560643 -8.256643731948877 6.87269312514386 0.037371012614206826 46.41691825600676 -0.02644273797824108 -4.355255040348356 -14.70288949505237 -3.875414797675987 -0.03751036901756784 -0.04521923731085969 -0.03789045524521271 -0.03246710777246017 -10.774266399895962 -0.02968824771727048 
0.020005870635209474 0.03082861298738597 -0.0023519588275712636 0.034513487358334496 -0.007987023759249747 0.04553733076674205 -3.575118914591 2.2307643532772383 -0.8061727322102421 -1.1444199224511196 3.8970365221485275 0.4180621205755688 -1.3937201557332315 -1.5056525308726358 -1.2527989821900725 0.17401499678657759 0.6064150306949896 -0.8498107892997284 0.002904963457805155 11.405132935085456 -0.7567082153728805 0.15460751699567626 -1.9269927460426193 -3.4531639472034326 0.7150155383421565 -18.458918494606415 -0.3092130760110668 -4.666470583087879 1.70487933752858 -14.83476870222111 73.93287111846038 24.43216535816019 0.6216839336129676 -2.5052199624606604 1.6556015980831642 42.12196297701117 19.772432118065563 -0.08562485172431564 -3.8338682220072275 4.515990067365195 -0.14199560822986815 -1.580468664581233 0.029441773337632638 0.03568884068904497 -56.200079029033404 0.012273623619227483 0.013767668814996734 -56.26258538998441 -38.78027869123902 -0.013279291900738122 0.006993525541015276 0.03636304524793372 -0.005347114020732334 0.048992813602004505 -0.0023536793024079294 0.017844365521079004 -0.03307596388217746 -36.708957300567775 -0.016143651124459143 0.032766492459324614 0.034586270401780264 0.04008534662787324 -0.007974939927255113 -0.00624045340581695 0.04551894434352928 0.03610678046406801 -19.7123886828946 -0.009358378921357963 -0.021827539400117592 0.03877104585676027 -0.027972380473495043 -0.03539154002303939 -0.025102117197127446 0.013962223003199846 -0.03728435297563288 24.008071839204213 0.023318250447708504 0.017428312232368126 28.84089532198459 -0.02398880165842367 -0.005503543082566053 28.87208462839468 0.03685596182730195 -0.02564515793922185 5.101460613896274 1.2622929791573227 12.905107428978203 -71.56512149007001 26.632905131322737 -6.573713067314851 1.6101502202797915 -7.871558636220893 -42.557168654076925 -8.451289740336668 1.583734292961105 2.3310924939308633 -0.49401089603330484 0.07556312931449549 -8.147040031705986 -0.007827247529071525 0.014707844835291327 44.60416204867741 0.005572885495317613 -0.04053496708162922 44.56432633635259 12.433167861191484 0.019780513468592116 0.006311060314375631 -0.007314932805506459 -0.03563322634557879 -0.029490503174971493 0.009571979409127821 0.041298024984208266 -0.023937886060935984 11.155418614274096 -0.01364177398391046 -0.011564965407890865 0.03770329244425939 0.03050801617249554 -0.011674356323540738 -0.04586893073271876 0.006250637979342471 0.0188367168490803 4.818642408577248 0.018020729218696532 0.039670144067692904 0.03983029632321955 -0.021584039620484524 -0.014895755195632764 -0.029228539728120524 0.04951589960388282 0.004975286396055836 -5.582489856565968 -0.03281455182241409 0.004170206418794849 -6.686186310642161 -0.00913769634092168 0.037255332027257004 -6.719109376179382 -0.010086970858097203 0.011744039898254557 0.00637973728176608 0.01566414906223641 0.02974706281022228 8.065836102266525 3.4749105284081945 -19.2124121621066 0.0207111802173948 10.382309881258122 -0.007885606355221404 -5.6123234713399395 -15.658275247066744 3.1424804509933733 -0.007237196900417702 -0.0265424212379202 0.00560687421528588 -0.02781405406307506 4.706983358147441 -0.006918473920468232 12.477063721743907 -8.213994926729447 6.8619730918894355 0.0362524483748384 46.41859277279373 -0.0017425330784995618 -4.32024231622567 -14.78012589338648 -3.8826124432887625 0.025161997649403113 -0.01945243763977388 -0.0011065549050503817 -0.019019469591330447 -10.745317243344372 0.0134344338722258 
-0.019324460738821214 -0.028022811970271205 -0.03249173398020386 0.009713313796334926 0.018593992923928965 -0.006246311397087739 -3.3702827412518177 2.204204508714155 -0.7593200339019521 -1.1237027580209953 3.8776509213134385 0.4554275593516749 -1.316019571051918 -1.4789838116356688 -1.1779179485337101 0.16019004560787423 0.6462358463736746 -0.8522545753272125 -0.016042287455904428 11.57703867594588 -0.7999773111949302 0.1683381652431198 -1.7186633657397699 -3.597332740223389 0.7385731086795757 -18.10142803995646 -0.3083548340125262 -4.681874720744432 1.675539009885726 -14.58724615286705 73.21708325066693 24.318281998524036 1.7901020824174374 -1.7501908902055752 1.488010446717584 45.30928939984735 19.691009000828306 -0.1335276434277402 -3.8450714058006055 4.557285404789401 -0.13095913351717473 -1.6413107010574641 0.0031631514629234256 0.023465937376280596 -56.19122685121459 0.03262597942296619 0.024160844293562148 -56.22232219308234 -38.75730330127537 -0.014074004509246518 0.015818909203551047 -0.013217831819536709 -0.032012337758998616 -0.0349863688075779 0.015785882330071062 -0.03848998063074945 -0.03150370925962492 -36.724203726222385 -0.032351825129922594 -0.016924340855257007 0.023499468729622226 -0.04043686334347274 -0.04255822663375661 -0.01717213123983693 -0.04416232389777511 -0.026439811096003393 -19.779535539012667 0.03075677353022524 -0.006744459594137748 -0.006588892004099695 -0.0027182857349890995 -0.0482829789546392 -0.003147386155290779 -0.032004862626383204 0.0024141576224218256 24.059400557176453 -0.029808107236083736 0.02739277467154582 28.845705387209975 -0.029351448315264667 0.019930659810398547 28.826582037821233 -0.007108771782567049 -0.0021860174409300505 5.171232099832489 1.2561357981459949 12.75895138662318 -70.5992858767421 26.71870072629268 -7.562611353673562 0.6971081623289457 -7.635835688056268 -46.739894694440686 -8.543466407939539 1.0655610558558424 2.3815510463416696 -0.4607476541109192 0.05117602775490944 -8.092424445975162 -0.03473685517733034 -0.005170380191142401 44.54831054423006 0.040425766676369275 0.0011666336108596225 44.57968454803088 12.458629769726901 0.038040659731200854 0.014046485985503569 -0.03543736170484727 -0.03304444418016632 -0.013858275977986447 -0.018331952330956556 -0.01298602086669122 0.026738510902400727 11.115247823479413 0.00028957264990558213 0.0010936738742092864 0.043659963644983514 0.03706107567611379 -0.030545935371829955 -0.015222783663109765 -0.04187716067778354 -0.024338438887823406 4.820486853408285 -0.03564566365569595 -0.024061048744294246 -0.013909495209838692 0.0060213365994573565 0.006118164601357357 0.023571427028113674 0.0073351821026914074 0.03592726914009215 -5.5556342841309085 0.04399407924796595 -0.02775838177805494 -6.704694387554358 -0.016377917127741715 0.04414343444474053 -6.745411246377929 -0.04389884913604367 -0.010103070519299723 -0.025628990374158098 0.005038669153162227 0.016134248485926744 8.048045201655757 3.539630482804925 -19.25759284675425 -0.013813943072385306 10.394925174411481 -0.026463553662423988 -5.590022027626802 -15.65415858634537 3.2270343573207976 -0.015377656488521328 -0.015342188319868322 -0.020330707776259945 0.010068045543582286 4.694815192043688 0.03145220962388488 12.47827541072719 -8.207548649869578 6.86185809580794 0.017824063806715185 46.331778338231345 0.022739011398743084 -4.280907374181376 -14.780817911214958 -3.82075476955711 0.037268323835132025 -0.04833201180318615 0.011762521386236617 -0.002204609706668637 -10.712307745391383 0.03298931180079653 
-0.024238503927939723 0.048739629992954586 -0.00014753530308458652 -0.044636307353947614 0.0038798321387591497 0.003641715148259628 -3.219979643421497 2.1529484853695244 -0.8000937768374871 -1.1468011794348427 3.825552573220276 0.3839953322670507 -1.3259403310551037 -1.4995831530597652 -1.1128778458696282 0.21929048949328145 0.5282302380258357 -0.8506506653235566 0.013388521520013425 11.699354764192563 -0.9049031764182085 0.24366416570220512 -1.4676057562843863 -3.883678949269545 0.6698941933490578 -17.630160763848586 -0.3648834332080667 -4.64422010314922 1.6954446159542864 -14.37760596827931 72.61508303019441 24.110200178126163 2.9279325921101944 -0.215726045717435 1.2372655830965886 49.59840374393801 19.389158935655004 -0.11599296181133598 -3.79425394711833 4.532253263404471 -0.09141432991915582 -1.6051946466797613 0.03527184251695007 -0.02655342485727802 -56.249138101517545 -0.012323679786880535 -0.036903354822668405 -56.18458116174392 -38.739589287443735 -0.017418460633677642 -0.01904119768285696 0.04064402340486414 0.01026123453050642 0.030930207533271938 0.0006226299084599799 -0.026317046478652597 -0.025602383027102094 -36.68197211326576 -0.005126270153549793 -0.014888785715434994 0.0330025085870536 0.008127391706794704 -0.045293922520079515 0.0019610504091945665 -0.012968116319665391 0.033939641894240445 -19.77191213822982 0.04996221968872633 -0.044899680781028566 -0.011754730213334695 0.015941484992339976 -0.04124162794126089 -0.005902416102840009 -0.040590398392286765 0.004893149740567209 24.051087816838148 0.002809078723090967 -0.008993240903186251 28.843912932719057 -0.049311013672436926 0.04103234563160634 28.86557443633128 0.007595712138484989 -0.02396931910721873 5.456106712638655 1.3151239301221274 12.648820399230944 -69.3939849469189 27.142905905186257 -8.919277812836782 -1.7115722700792144 -6.954676363992303 -53.761568747179986 -8.75128102894996 -0.06865305287162561 2.8221995468350087 -0.4768765705246086 0.07226696484724054 -8.133610959550886 0.018293148087103243 0.030642417576858098 44.5768690260081 -0.008190481139048043 -0.01898080385851647 44.540415404364985 12.47568938909523 0.04638642826526424 -0.036504035529855434 0.03324484605049898 0.02703727554863606 -0.02771101128149731 -0.017420769123024864 0.008217244164038445 -0.04971756211153987 11.133633719913195 -0.017743876717170492 -0.019878163017702406 -0.012889226024557835 0.02539507043550477 -0.04703744497999018 0.0039453952435324225 0.04631125973418868 -0.046410925156509186 4.77176835240187 -0.016477069955042847 0.009562618970210792 0.008460855853321639 0.03335808582364546 -0.030428293344723866 -0.049511748227794763 0.046560840713254836 0.0034159497472334263 -5.584411348573312 0.03943135488478698 0.039591116595448506 -6.711713334988346 -0.014204695726035093 0.04662947180913989 -6.732157339772703 -0.008584811713896178 0.000980896807539906 0.010303717350557618 -0.006401027908950702 0.0371590289018218 8.035442715561299 3.526153881976091 -19.2504778715941 0.003549945093466498 10.403128661106228 0.03261429460581158 -5.588686509745688 -15.61947058277254 3.1478313286932575 0.013041950288679065 0.0082426288548086 -0.024305227600269888 -0.021873796649801186 4.674005526452921 0.03238826518511116 12.498632116236482 -8.204087787409867 6.853523933241434 -0.016947192778770156 46.40538535474934 -0.04600433106646975 -4.353823473637725 -14.738709414564298 -3.8315848854763503 -0.013264079885835663 0.014264106214499339 0.015324614068052397 0.003890448700955892 -10.705733927819637 -0.005469818029080024 
